<svg fill="none" version="1.1" viewBox="0 0 78 72.009" xmlns="http://www.w3.org/2000/svg">
	<path d="m56.175 10.125h-32.095c-1.355 0-2.654-0.5334-3.613-1.4828-0.958-0.9494-1.496-2.237-1.496-3.5797 0-1.3426 0.538-2.6303 1.496-3.5796 0.959-0.9494 2.258-1.4828 3.613-1.4828h32.095c1.355 0 2.655 0.5334 3.613 1.4828 0.958 0.9493 1.497 2.237 1.497 3.5796 0 1.3427-0.539 2.6303-1.497 3.5797s-2.258 1.4828-3.613 1.4828zm-33.188 15.466h-13.224v5e-3c-1.355 0-2.655-0.534-3.613-1.483s-1.496-2.237-1.496-3.58c0-1.342 0.538-2.63 1.496-3.579 0.958-0.95 2.258-1.4831 3.613-1.4831h13.224c0.683-0.0197 1.364 0.0966 2.001 0.342 0.637 0.2451 1.217 0.6151 1.708 1.0871 0.49 0.472 0.88 1.036 1.146 1.66s0.403 1.294 0.403 1.971-0.137 1.348-0.403 1.972c-0.266 0.623-0.656 1.188-1.146 1.66-0.491 0.471-1.071 0.841-1.708 1.086-0.637 0.246-1.318 0.362-2.001 0.342zm5.096 25.876c-3e-3 -1.339-0.541-2.622-1.496-3.569s-2.249-1.481-3.6-1.485h-13.224c-1.355 0-2.655 0.533-3.613 1.483-0.958 0.949-1.496 2.237-1.496 3.579 0 1.343 0.538 2.631 1.496 3.58s2.258 1.483 3.613 1.483h13.224c1.354-5e-3 2.651-0.541 3.606-1.492 0.956-0.951 1.491-2.238 1.49-3.579zm48.415-19.043c0.957 0.947 1.497 2.231 1.502 3.572v8e-3c-2e-3 1.342-0.541 2.628-1.499 3.576s-2.256 1.481-3.61 1.482h-67.782c-1.355-1e-3 -2.655-0.535-3.613-1.485s-1.496-2.238-1.496-3.581c3e-3 -1.341 0.543-2.626 1.501-3.573 0.957-0.947 2.255-1.48 3.608-1.481h67.782c1.353 2e-3 2.65 0.535 3.607 1.482zm-20.314 29.46h-32.095c-1.355 0-2.655 0.533-3.613 1.483-0.958 0.949-1.497 2.237-1.497 3.579 0 1.343 0.539 2.631 1.497 3.58s2.258 1.483 3.613 1.483h32.095c1.355 0 2.654-0.534 3.613-1.483 0.958-0.949 1.496-2.237 1.496-3.58 0-1.342-0.538-2.63-1.496-3.579-0.959-0.95-2.258-1.483-3.613-1.483zm-4.774-37.777c-0.958-0.949-1.496-2.236-1.498-3.578 3e-3 -1.342 0.542-2.628 1.499-3.577 0.958-0.949 2.256-1.4832 3.611-1.4854h13.211c0.671 0 1.335 0.1309 1.955 0.3853 0.62 0.2541 1.183 0.6271 1.657 1.0971 0.475 0.47 0.851 1.028 1.108 1.643 0.257 0.614 0.389 1.272 0.389 1.937s-0.132 1.323-0.389 1.937-0.633 1.173-1.108 1.643c-0.474 0.47-1.037 0.843-1.657 1.097s-1.284 0.385-1.955 0.385h-13.211c-1.355-1e-3 -2.654-0.534-3.612-1.484z" clip-rule="evenodd" fill="#fff" fill-rule="evenodd"/>
</svg>
