<svg width="508.25" height="148.34" clip-rule="evenodd" fill-rule="evenodd" image-rendering="optimizeQuality"
	shape-rendering="geometricPrecision" text-rendering="geometricPrecision" version="1.0" viewBox="0 0 240 73.846"
	xmlns="http://www.w3.org/2000/svg">
	<path transform="translate(-.06 .147)"
		d="M163.113 27.905c0 7.65-4.767 17.701-8.212 24.342-5.412 10.45-12.732 16.712-24.636 17.45-10.521.653-34.3 2.48-30.135-15.25 1.807-7.676 5.821-14.438 8.286-21.85 8.281-16.523 29.122-19.673 45.679-15.544 5.604 2.04 8.587 4.768 9.018 10.851zm-27.789.733c-8.51 0-9.547 11.88-11.144 18.257-.402 2.41-3.1 10.485 1.246 10.485 10.232 2.057 11.184-9.165 12.905-16.644.632-2.752 1.887-7.368 1.32-10.192 0-2.1-2.93-1.766-4.327-1.906zm-58.583.513c-1.05 20.12-15.181 18.554-31.968 18.477-6.38-.026-12.903-.44-19.21-.44-2.327 2.36 4.41 9.52 6.306 10.705 6.47 4.03 14.588 2.3 19.797-2.933 2.798 0 32.832-3.926 22.436 6.452-5.032 4.477-12.151 7.122-18.624 8.652-20.595 4.87-65.083-6.969-50.078-36C15.657 17.181 37.874 7.95 56.21 3.195c1.708-.342 3.395-.605 5.133-.734C74.39 1.488 76.74 19.494 76.74 29.152zm-19.136-1.613c0-1.82.074-3.744-.514-5.499-2.014-8.113-23.142 9.212-25.662 11.731-.316.637-.077.44.366.66 7.013 0 14.041-.073 21.043-.073 4.612-.761 4.766-2.165 4.766-6.819zm40.693 10.338c-1.59 3.202-1.235 7.402-4.473 9.825-4.429 3.313-15.583 3.322-13.125-4.692 2.328-7.62 6.729-10.86 14.738-8.872 1.954.654 2.415 1.948 2.86 3.74zm139.456-9.898c0 2.051-.43 4.166-.88 6.159-2.647 11.699-6.915 22.829-10.705 34.094-3.478 3.478-10.708 1.584-14.445-.66-1.869-1.869 2.778-11.406 3.52-13.71 1.139-3.54 7.36-16.594 2.126-19.21-1.683 0-3.022.22-4.692.66-15.662 5.482-26.779 21.425-38.054 32.7-4.887 2.461-8.396 1.831-13.197-.586-.477-.477-.246-1.233-.147-1.833 3.633-15.175 9.38-30.22 15.617-44.506.981-2.917 11.065-1.836 13.565-.587 0 3.23-.34 8.652 4.325 8.652 10.466-1.153 36.11-23.87 42.6-4.399.184 1.1.367 2.096.367 3.226z"
		fill="#ffffff" />
</svg>