<svg version="1.1" viewBox="0 0 75.834 30.076" xmlns="http://www.w3.org/2000/svg">
	<path
		d="m5.225 0h-3.286v3.3h3.286zm70.609 24.99v-17.741c0-0.757-0.647-1.352-1.508-1.352h-19.228c-0.808 0-1.508 0.595-1.508 1.352v15.796h3.285v3.3h17.397c0.915 0 1.562-0.596 1.562-1.353zm-11.742-9.898h-1.885v-1.947a0.522 0.522 0 0 0-0.485-0.541h-1.615c-0.162 0-0.485 0.108-0.485 0.54v6.005c0 0.378 0.27 0.54 0.485 0.54h1.615c0.216 0 0.485-0.162 0.485-0.54v-2.164h1.885v2.164c0 2.434-1.615 2.434-2.37 2.434h-2.315l-0.054-0.054c-1.077-0.162-1.616-0.974-1.616-2.38v-6.005c0-1.893 1.023-2.325 1.616-2.434h2.423c1.616 0 2.37 0.758 2.37 2.434v1.948zm7.702-2.543-3.931 7.087h3.931v1.893h-6.354v-1.731l3.985-7.249h-3.985v-1.893h6.409v1.893h-0.054z"
		fill="currentColor" />
	<path
		d="m31.668 5.896h-4.308v-5.896h-3.286v26.343h7.594c1.993 0 4.417-0.324 4.417-4.435v-11.468c-0.054-4.003-2.424-4.544-4.417-4.544zm1.078 16.012c0 1.027-0.862 1.136-1.132 1.136h-4.308v-13.848h4.308c0.27 0 1.131 0.216 1.131 1.244v11.468zm-16.535-16.012h-3.177c-1.993 0-4.417 0.54-4.417 4.544v11.467c0 4.112 2.424 4.436 4.417 4.436h3.177c1.993 0 4.417-0.324 4.417-4.436v-11.467c0-4.003-2.424-4.544-4.417-4.544zm1.131 16.011c0 1.028-0.861 1.137-1.13 1.137h-3.178c-0.27 0-1.131-0.109-1.131-1.137v-11.467c0-1.028 0.861-1.244 1.13-1.244h3.178c0.27 0 1.131 0.216 1.131 1.244zm32.854-9.628v-1.84c0-3.948-2.424-4.543-4.416-4.543h-2.37c-1.993 0-4.417 0.54-4.417 4.544v2.704c0 0.487 0.216 1.948 2.424 2.867l4.47 1.407s0.97 0.27 0.97 1.569v2.866c0 1.028-0.862 1.136-1.131 1.136h-2.37c-0.27 0-1.131-0.108-1.131-1.136v-2.11h-3.285v2.11c0 4.111 2.423 4.436 4.416 4.436h2.37c1.992 0 4.416-0.325 4.416-4.436v-3.787c0-1.243-0.485-2.487-2.908-3.407-2.424-0.92-4.309-1.406-4.524-1.514-0.216-0.163-0.431-0.433-0.431-1.19v-1.57c0-1.027 0.861-1.243 1.13-1.243h2.37c0.27 0 1.132 0.216 1.132 1.244v1.839h3.285zm-48.257 11.738c0 2.488-1.939 4.274-1.939 4.274l1.777 1.785s3.447-2.164 3.447-6.059v-18.121h-3.284v18.121z"
		fill="currentColor" />
</svg>