<svg width="200" height="200" version="1.1" viewBox="0 0 52.917 52.917" xmlns="http://www.w3.org/2000/svg">
	<circle cx="26.458" cy="26.458" r="26.458" fill-rule="evenodd" stroke-width=".17639" />
	<path
		d="m40.131 23.06a3.9731 3.9508 0 0 0-3.943 3.9508 3.9731 3.9508 0 0 0 3.9731 3.9508 3.9731 3.9508 0 0 0 0.79254-0.07901h-0.0885l-3.4433-3.6874c0.0467-0.09218 3.231-3.917 3.3703-4.0845a3.9731 3.9508 0 0 0-0.63112-0.05044 3.9731 3.9508 0 0 0-0.03 0zm2.078 0.56535-2.8256 3.5695 2.8711 3.1734a3.9731 3.9508 0 0 0 0.9053-0.76644l-2.2477-2.407c0.031-0.0619 1.2462-1.5421 2.2545-2.7681a3.9731 3.9508 0 0 0-0.95756-0.80146zm1.7231 2.1425-1.166 1.427 1.1174 1.1965a3.9731 3.9508 0 0 0 0.25039-1.3807 3.9731 3.9508 0 0 0-0.20176-1.2428z"
		fill="#fff" fill-rule="evenodd" stroke="currentColor" stroke-width=".23832" />
	<g transform="matrix(1.0011 0 0 .99546 -155.17 87.413)" fill="#fff">
		<rect x="165.31" y="-76.5" width="6.343" height="30.832" stroke-width="2.4072"
			style="paint-order:markers stroke fill" />
		<path
			d="m192.73-76.368h7.5769l-13.36 15.92 13.452 14.491h-7.5769l-13.452-14.491c0.18458-0.36923 13.36-15.92 13.36-15.92z"
			stroke-width=".28063px" />
		<path
			d="m182.29-76.413h7.5769l-13.36 15.92 13.452 14.491h-7.5769l-13.452-14.491c0.18459-0.36923 13.36-15.92 13.36-15.92z"
			stroke-width=".28063px" />
	</g>
</svg>