<svg fill="none" version="1.1" viewBox="0 0 555 66" xmlns="http://www.w3.org/2000/svg">
	<g fill="#fff">
		<path d="m400.32 0 58.299 2.0364e-5v9.6457h-23.978v54.801h-10.343v-54.801l-23.978-1e-5v-9.6457z"/>
		<path d="m458.45 58.793c0 3.5515-2.947 6.4305-6.583 6.4305-3.635 0-6.582-2.879-6.582-6.4305 0-3.5514 2.947-6.4304 6.582-6.4304 3.636 0 6.583 2.879 6.583 6.4304z"/>
		<path d="m555 64.447h-10.105v-64.447l10.105 3.5298e-6v64.447z"/>
		<path d="m93.666 66c-19.427 0-34.59-14.667-34.59-33s15.163-33 34.59-33c19.428 6.7862e-6 34.59 14.667 34.59 33s-15.163 33-34.59 33zm0-9.625c12.984 0 23.692-9.2583 23.692-23.375 0-14.025-10.425-23.375-23.692-23.375-13.268 0-23.692 9.4417-23.692 23.467 0 14.117 10.709 23.283 23.692 23.283z"/>
		<path d="m205.99 0 59.076 2.0636e-5v9.6671l-24.297-1e-5v54.78h-10.481v-54.78l-24.298-1e-5v-9.6671z"/>
		<path d="m381.26 57.174v-57.174l10.5 3.668e-6v64.447h-18.233l-31.119-57.082v57.082h-10.501v-64.447l18.233 6.3689e-6 31.12 57.174z"/>
		<path d="m186.94 57.174v-57.174l10.501 3.668e-6v64.447h-18.233l-31.119-57.082-1e-3 57.082h-10.5v-64.447l18.233 6.3689e-6 31.119 57.174z"/>
		<path d="m537.9 64.447h-12.563l-26.303-64.447 11.778 4.114e-6 27.088 64.447z"/>
		<path d="m273.61 64.447v-64.447l48.791 1.7043e-5v9.6671l-38.267-2e-5v16.572h35.397v9.667h-35.397v18.874h39.224v9.6671h-49.748z"/>
		<rect width="10.882" height="64.447"/>
		<path d="m478.82 64.449h-12.437l13.603-31.835h12.048l-13.214 31.835z"/>
		<path d="m33.424 32.224 24.874 32.224h-13.603l-24.485-32.224 24.634-32.223 13.454 4.6996e-6 -24.874 32.223z"/>
	</g>
</svg>
