<svg fill="#FFF" version="1.1" viewBox="0 0 50 50" xmlns="http://www.w3.org/2000/svg">
	<path d="M14.281 0C6.411 0 0 6.324 0 14.094c0 2.383.621 4.707 1.781 6.781a23.531 23.531 0 0 0-.406 4.375c0 13 10.7 23.563 23.875 23.563 1.352 0 2.703-.09 4.031-.313 1.977.988 4.2 1.5 6.438 1.5C43.589 50 50 43.676 50 35.906c0-2.086-.46-4.078-1.344-5.937.32-1.535.5-3.121.5-4.719 0-12.996-10.73-23.563-23.906-23.563-1.238 0-2.488.094-3.719.282A14.316 14.316 0 0 0 14.281 0Zm10.813 9.375c2.047 0 3.84.223 5.343.688 1.508.46 2.786 1.074 3.782 1.843 1.008.778 1.777 1.606 2.25 2.469.476.871.718 1.758.718 2.594 0 .808-.343 1.515-.968 2.156-.625.64-1.41.969-2.344.969-.848 0-1.508-.196-1.969-.594-.43-.375-.883-.945-1.375-1.781-.57-1.07-1.238-1.942-2.031-2.532-.77-.574-2.078-.843-3.844-.843-1.64 0-2.98.297-3.968.937-.958.617-1.407 1.348-1.407 2.188 0 .515.16.941.469 1.312.328.39.762.715 1.344 1 .601.297 1.222.551 1.843.719.637.172 1.723.445 3.188.781 1.852.395 3.555.809 5.063 1.282 1.523.484 2.832 1.09 3.906 1.78 1.093.704 1.976 1.606 2.593 2.688.618 1.082.907 2.41.907 3.969-.004 1.86-.528 3.547-1.594 5.031-1.063 1.48-2.629 2.672-4.656 3.5-2.008.82-4.418 1.219-7.157 1.219-3.289 0-6.039-.559-8.187-1.688a10.706 10.706 0 0 1-3.781-3.312c-.977-1.383-1.469-2.738-1.469-4.063 0-.824.336-1.535.969-2.125.629-.578 1.418-.875 2.375-.875.785 0 1.48.227 2.031.688.531.441.98 1.098 1.344 1.938.406.917.84 1.667 1.312 2.28.446.583 1.082 1.087 1.907 1.47.828.39 1.964.593 3.343.593 1.895 0 3.43-.402 4.594-1.187 1.14-.766 1.719-1.684 1.719-2.813 0-.89-.313-1.61-.907-2.156-.625-.574-1.445-1.008-2.437-1.313-1.043-.316-2.441-.667-4.188-1.03-2.375-.505-4.394-1.11-6-1.782-1.644-.691-2.968-1.652-3.937-2.844-.984-1.215-1.5-2.71-1.5-4.5 0-1.707.527-3.27 1.563-4.593 1.019-1.313 2.511-2.333 4.437-3.032 1.898-.695 4.164-1.031 6.719-1.031Z"/>
</svg>
